<svg xmlns="http://www.w3.org/2000/svg" xmlns:xlink="http://www.w3.org/1999/xlink" width="36" height="36" viewBox="0 0 36 36">
    <defs>
        <path id="j40ojtdnma" d="M18 .58c9.941 0 18 8.059 18 18s-8.059 18-18 18-18-8.059-18-18 8.059-18 18-18zm0 1c-9.389 0-17 7.611-17 17s7.611 17 17 17 17-7.611 17-17-7.611-17-17-17zm1 7v9h9v2h-9v9h-2v-9H8v-2h9v-9h2z"/>
    </defs>
    <g fill="none" fill-rule="evenodd">
        <g>
            <g>
                <g>
                    <g transform="translate(-323 -240) translate(0 186) translate(323 53) translate(0 .42)">
                        <use fill="#1B1B1B" xlink:href="#j40ojtdnma"/>
                    </g>
                </g>
            </g>
        </g>
    </g>
</svg>
